<?xml version="1.0" encoding="UTF-8" standalone="no"?>
<svg
   width="49.879852"
   height="34.570404"
   fill="none"
   version="1.1"
   id="svg45"
   sodipodi:docname="ethereum_hardhat.svg"
   inkscape:version="1.1.2 (0a00cf5339, 2022-02-04)"
   xmlns:inkscape="http://www.inkscape.org/namespaces/inkscape"
   xmlns:sodipodi="http://sodipodi.sourceforge.net/DTD/sodipodi-0.dtd"
   xmlns="http://www.w3.org/2000/svg"
   xmlns:svg="http://www.w3.org/2000/svg">
  <sodipodi:namedview
     id="namedview47"
     pagecolor="#ffffff"
     bordercolor="#666666"
     borderopacity="1.0"
     inkscape:pageshadow="2"
     inkscape:pageopacity="0.0"
     inkscape:pagecheckerboard="0"
     showgrid="false"
     inkscape:zoom="4.8363636"
     inkscape:cx="63.06391"
     inkscape:cy="16.954887"
     inkscape:window-width="1440"
     inkscape:window-height="835"
     inkscape:window-x="0"
     inkscape:window-y="0"
     inkscape:window-maximized="1"
     inkscape:current-layer="svg45" />
  <path
     d="m 74.640737,26.533405 v -7.782 h -8.743 v 7.782 h -3.064 V 8.8694046 h 3.064 v 7.4240004 h 8.743 V 8.8684046 h 3.093 V 26.533405 Z m 18.338,0.003 -0.613,-2.125 c -0.67,1.105 -2.648,2.325 -5.6,2.325 -3.065,0 -5.516,-1.353 -5.516,-4.335 0,-2.594 1.866,-3.783 5.933,-4.167 l 4.487,-0.442 c -0.084,-2.054 -0.837,-3.243 -3.71,-3.243 -2.647,0 -3.37,1.05 -3.37,2.816 l -2.903,0.029 c 0,-2.927 1.226,-5.188 6.241,-5.188 5.822,0 6.661,2.486 6.661,6.292 v 8.033 z m -1.31,-6.514 -4.036,0.442 c -2.478,0.278 -3.315,0.801 -3.315,1.906 0,1.297 1.115,2.042 3.204,2.042 2.618,0 4.152,-1.49 4.152,-3.947 l -0.004,-0.443 z m 12.844003,-5.247 c -2.981,0 -3.572,1.636 -3.572,3.919 v 7.839 h -2.975003 v -14.132 h 1.589 l 0.703003,1.96 c 0.446,-0.938 1.81,-2.153 4.596,-2.153 h 0.475 v 2.623 c -0.288,0 -0.565,-0.056 -0.816,-0.056 z m 14.321,11.759 -0.67,-2.016 c -0.501,0.967 -2.089,2.21 -5.465,2.21 -4.708,0 -6.103,-3.395 -6.103,-7.26 0,-3.865 1.338,-7.259 6.073,-7.259 2.815,0 4.236,0.994 4.849,1.933 V 7.0194046 h 2.926 V 26.534405 Z m -5.267,-11.844 c -3.258,0 -3.927,1.932 -3.927,4.775 0,2.842 0.67,4.83 3.901,4.83 3.315,0 4.011,-1.932 4.011,-4.83 0,-2.73 -0.583,-4.772 -3.984,-4.772 z m 20.731,11.844 v -7.922 c 0,-2.65 -0.447,-3.919 -3.485,-3.919 -3.007,0 -3.65,1.242 -3.65,3.919 l -0.054,7.922 h -2.925 V 7.0194046 h 2.926 v 7.1440004 c 0.556,-1.014 1.809,-1.959 4.541,-1.959 4.653,0 5.6,2.623 5.6,6.68 v 7.645 z m 17.609,0.002 -0.613,-2.125 c -0.67,1.105 -2.648,2.325 -5.605,2.325 -3.066,0 -5.517,-1.353 -5.517,-4.335 0,-2.594 1.867,-3.783 5.935,-4.167 l 4.484,-0.442 c -0.078,-2.054 -0.83,-3.243 -3.709,-3.243 -2.645,0 -3.371,1.05 -3.371,2.816 l -2.903,0.029 c 0,-2.927 1.227,-5.188 6.241,-5.188 5.823,0 6.662,2.486 6.662,6.292 v 8.033 z m -1.309,-6.514 -4.037,0.442 c -2.478,0.278 -3.315,0.801 -3.315,1.906 0,1.297 1.115,2.042 3.204,2.042 2.618,0 4.152,-1.49 4.152,-3.947 z m 9.752,-5.247 v 7.7 c 0,1.326 0.557,1.933 3.65,1.796 v 2.369 c -4.708,0.276 -6.686,-0.829 -6.686,-4.17 v -7.695 h -2.036 v -1.766 l 2.034,-0.607 V 8.8694046 h 2.953 v 3.5330004 h 3.733 v 2.369 z"
     fill="#ffffff"
     id="path2"
     style="display:inline" />
  <path
     d="m 49.875737,30.882405 v -2.421 c 0,-0.45 -0.757,-0.879 -2.116,-1.266 l 0.033,-3.013 c 0,-4.642 -1.44,-9.171 -4.126,-12.975 a 22.825,22.825 0 0 0 -10.886,-8.2900004 l -0.097,-0.604 a 1.722,1.722 0 0 0 -0.408,-0.872 1.747,1.747 0 0 0 -0.815,-0.52100001 23.148,23.148 0 0 0 -12.925,0 c -0.317,0.093 -0.6,0.27300001 -0.818,0.52000001 -0.217,0.246 -0.36,0.548 -0.41,0.872 l -0.093,0.563 a 22.831,22.831 0 0 0 -10.9620004,8.2830004 22.498,22.498 0 0 0 -4.159,13.023 v 3.026 c -1.33999999,0.386 -2.08699999,0.81 -2.08699999,1.257 v 2.421 a 0.59,0.59 0 0 0 0.087,0.408 5.852,5.852 0 0 1 2.24699999,-1.015 c 2.072,-0.5 4.179,-0.85 6.303,-1.046 a 4.25,4.25 0 0 1 3.3070004,1.057 8.95,8.95 0 0 0 6.009,2.312 h 13.964 a 8.943,8.943 0 0 0 6.008,-2.314 4.253,4.253 0 0 1 3.308,-1.069 c 2.123,0.196 4.23,0.544 6.302,1.042 a 5.26,5.26 0 0 1 2.13,0.925 c 0.035,0.035 0.078,0.066 0.108,0.099 a 0.6,0.6 0 0 0 0.096,-0.402 z"
     fill="#fff100"
     id="path4"
     style="display:inline" />
  <path
     d="m 11.983737,25.787405 a 53.064,53.064 0 0 1 -0.03,-1.673 c 0.007,-8.416 1.992,-15.9640004 5.262,-21.2350004 a 22.831,22.831 0 0 0 -10.9620004,8.2820004 22.498,22.498 0 0 0 -4.16,13.02 v 3.026 a 55.9,55.9 0 0 1 9.8900004,-1.42 z"
     fill="url(#a)"
     id="path6"
     style="display:inline;fill:url(#a)" />
  <path
     d="m 47.790737,24.181405 a 22.425,22.425 0 0 0 -5.215,-14.3960004 46.55,46.55 0 0 1 2.162,14.3250004 c 0,0.82 -0.022,1.63 -0.06,2.435 a 28.49,28.49 0 0 1 3.074,0.648 l 0.038,-3.012 z"
     fill="url(#b)"
     id="path8"
     style="display:inline;fill:url(#b)" />
  <path
     d="m 47.541737,30.269405 c -2.073,-0.5 -4.18,-0.85 -6.303,-1.046 a 4.252,4.252 0 0 0 -3.308,1.062 8.943,8.943 0 0 1 -6.009,2.313 h -13.958 a 8.948,8.948 0 0 1 -6.006,-2.312 4.249,4.249 0 0 0 -3.3080004,-1.071 c -2.124,0.196 -4.23,0.546 -6.303,1.045 a 5.929,5.929 0 0 0 -2.24599999,1.015 c 1.05999999,1.608 11.78200039,3.295 24.84600039,3.295 13.065,0 23.782,-1.693 24.844,-3.294 -0.037,-0.032 -0.078,-0.063 -0.109,-0.098 a 5.463,5.463 0 0 0 -2.14,-0.909 z"
     fill="url(#c)"
     id="path10"
     style="display:inline;fill:url(#c)" />
  <path
     d="m 24.939737,7.1074046 -5.346,9.0220004 5.346,3.29 V 7.1064046 Z"
     fill="#0a0a0a"
     id="path12"
     style="display:inline" />
  <path
     d="M 24.941737,7.1104046 V 19.416405 l 5.345,-3.284 z m 0,14.0930004 v 4.291 c 0.1,-0.142 5.345,-7.58 5.345,-7.583 l -5.345,3.293 z"
     fill="#4b4d4d"
     id="path14"
     style="display:inline" />
  <path
     d="m 24.941737,21.205405 -5.346,-3.288 5.346,7.58 v -4.294 z"
     fill="#0a0a0a"
     id="path16"
     style="display:inline" />
  <defs
     id="defs43">
    <linearGradient
       id="a"
       x1="10.561"
       y1="30.514"
       x2="10.561"
       y2="6.1859999"
       gradientUnits="userSpaceOnUse"
       gradientTransform="translate(-0.90626339,-3.3065954)">
      <stop
         stop-color="#EDCF00"
         id="stop18" />
      <stop
         offset=".33"
         stop-color="#F0D500"
         id="stop20" />
      <stop
         offset=".77"
         stop-color="#F9E500"
         id="stop22" />
      <stop
         offset="1"
         stop-color="#FFF100"
         id="stop24" />
    </linearGradient>
    <linearGradient
       id="b"
       x1="46.089001"
       y1="30.691999"
       x2="46.089001"
       y2="13.092"
       gradientUnits="userSpaceOnUse"
       gradientTransform="translate(-0.90626339,-3.3065954)">
      <stop
         stop-color="#EDCF00"
         id="stop27" />
      <stop
         offset=".59"
         stop-color="#F7E100"
         id="stop29" />
      <stop
         offset="1"
         stop-color="#FFF100"
         id="stop31" />
    </linearGradient>
    <radialGradient
       id="c"
       cx="0"
       cy="0"
       r="1"
       gradientUnits="userSpaceOnUse"
       gradientTransform="matrix(18.5398,0,0,18.4136,2.7947366,43.828405)">
      <stop
         stop-color="#FFF100"
         id="stop34" />
      <stop
         offset=".23"
         stop-color="#F9E500"
         id="stop36" />
      <stop
         offset=".67"
         stop-color="#F0D500"
         id="stop38" />
      <stop
         offset="1"
         stop-color="#EDCF00"
         id="stop40" />
    </radialGradient>
  </defs>
</svg>
